# xmcd
#
# Track frame offsets: 
#        150
#        12505
#        22303
#        31737
#        42240
#        53140
#        64478
#        74921
#        85349
#        97093
#        108098
#        117247
#        127305
#        138782
#        148869
#        158999
#        168966
#        179450
#        187865
#        199346
#        211850
#        223677
#        234198
#        245755
#        255802
#        264739
#        275076
#        286608
#
# Disc length: 3972 seconds
#
# Revision: 0
# Processed by: cddbd v1.5.2PL0 Copyright (c) Steve Scherf et al.
# Submitted via: ExactAudioCopyFreeDBPlugin 1.0
#
DISCID=ad0f821c
DTITLE=The Carlisles - Busy Body Boogie - CD2
DYEAR=2003
DGENRE=Country
TTITLE0=Need A Little Help
TTITLE1=Leave That Liar Alone
TTITLE2=Is Zat You Myrtle
TTITLE3=I'm Rough Stuff
TTITLE4=Knothole
TTITLE5=Old Fashioned Love
TTITLE6=Too Old To Cut The Mustard
TTITLE7=I Would If I Could (But I Can't)
TTITLE8=Patch Up Our Old Love Affair
TTITLE9=This Heart Is Not For Sale
TTITLE10=Let Me Hold Your Little Hand
TTITLE11=Shake-A-Leg
TTITLE12=Love Love Love (That's What It Is)
TTITLE13=Something Different
TTITLE14=True Love
TTITLE15=Bargain Day, Half Off
TTITLE16=Nine Have Tried (And Nine Have Died)
TTITLE17=It's Bedtime Bill
TTITLE18=Tain't Nice (To Talk Like That)
TTITLE19=Unpucker
TTITLE20=Moody's Goose
TTITLE21=Teletouch
TTITLE22=My Happiness Belongs To Someone Else
TTITLE23=Dumb Bunny
TTITLE24=Who's-A-Gonna Stop Me
TTITLE25=Monkey Business
TTITLE26=Woman Driver (later version)
TTITLE27=No Help Wanted (later version)
EXTD=
EXTT0=
EXTT1=
EXTT2=
EXTT3=
EXTT4=
EXTT5=
EXTT6=
EXTT7=
EXTT8=
EXTT9=
EXTT10=
EXTT11=
EXTT12=
EXTT13=
EXTT14=
EXTT15=
EXTT16=
EXTT17=
EXTT18=
EXTT19=
EXTT20=
EXTT21=
EXTT22=
EXTT23=
EXTT24=
EXTT25=
EXTT26=
EXTT27=
PLAYORDER=
